<svg width="116" height="160" viewBox="0 0 116 160" fill="none" xmlns="http://www.w3.org/2000/svg">
<rect width="116" height="160" fill="#29B1E6"/>
<path d="M94.7995 90.8703V94.2416C88.9042 97.7977 80.6481 100.881 71.5192 102.928C56.9507 106.187 43.44 106.019 37.9058 102.498C36.5513 101.638 35.73 100.601 35.4634 99.4188C35.0334 97.5397 36.0912 95.3596 38.4734 93.1149C38.4886 93.1007 38.5086 93.0928 38.5293 93.0928C38.5501 93.0928 38.5701 93.1007 38.5852 93.1149C38.5989 93.1312 38.6064 93.1518 38.6064 93.173C38.6064 93.1942 38.5989 93.2148 38.5852 93.231C37.407 94.7017 36.9469 96.082 37.2264 97.3247C37.4543 98.3309 38.1595 99.2253 39.3334 99.9692C44.4204 103.194 57.1055 103.285 70.8914 100.197C80.6223 98.0385 89.3213 94.6372 94.7995 90.8703Z" fill="white"/>
<path d="M94.7995 102.691V112.637H50.1351C57.8575 112.513 65.5453 111.576 73.0715 109.842C80.542 108.216 87.8236 105.82 94.7995 102.691V102.691Z" fill="white"/>
<path d="M49.4127 112.637H32.3201C32.2212 112.585 32.1266 112.53 32.0363 112.474C29.925 111.248 28.6479 109.747 28.2522 107.993C28.1697 107.606 28.1279 107.211 28.1275 106.815C28.1275 105.134 28.8844 103.34 30.398 101.457C30.4099 101.439 30.4287 101.426 30.45 101.422C30.4714 101.417 30.4937 101.421 30.5119 101.433C30.5302 101.445 30.5429 101.464 30.5473 101.485C30.5518 101.507 30.5475 101.529 30.5356 101.547C29.6756 103.022 29.4004 104.42 29.6756 105.701C30.5356 109.537 36.3707 111.867 44.9665 112.474C46.3898 112.577 47.869 112.628 49.4127 112.637Z" fill="white"/>
<path d="M38.6067 93.2439C38.6204 93.2277 38.6279 93.2071 38.6279 93.1859C38.6279 93.1647 38.6204 93.1441 38.6067 93.1278C38.5916 93.1136 38.5716 93.1057 38.5508 93.1057C38.5301 93.1057 38.5101 93.1136 38.4949 93.1278C36.0998 95.3725 35.0549 97.5526 35.4849 99.4317C35.7515 100.614 36.5728 101.646 37.9273 102.511C43.4615 106.019 56.9722 106.187 71.5407 102.941C80.6696 100.894 88.9257 97.8106 94.821 94.2545V102.704C87.8451 105.833 80.5635 108.229 73.093 109.855C65.5668 111.589 57.879 112.526 50.1566 112.65H49.4127C47.869 112.65 46.4027 112.59 44.9837 112.487C36.3836 111.88 30.5528 109.55 29.6928 105.714C29.409 104.424 29.6928 103.035 30.5528 101.56C30.5647 101.542 30.569 101.52 30.5645 101.498C30.5601 101.477 30.5474 101.458 30.5291 101.446C30.5201 101.44 30.51 101.436 30.4994 101.434C30.4887 101.432 30.4778 101.432 30.4672 101.434C30.4459 101.439 30.4271 101.452 30.4152 101.47C28.9016 103.353 28.1448 105.146 28.1448 106.828C28.1451 107.224 28.1869 107.619 28.2695 108.006C28.6651 109.76 29.9422 111.261 32.0535 112.487C32.1438 112.542 32.2384 112.598 32.3373 112.65H23.6168V73.9497H94.7995V90.8703C89.3213 94.6372 80.6094 98.0385 70.9129 100.21C57.127 103.297 44.4419 103.22 39.3549 99.9821C38.181 99.2382 37.4758 98.3438 37.2479 97.3376C36.9684 96.0949 37.4285 94.7146 38.6067 93.2439Z" fill="white"/>
<path fill-rule="evenodd" clip-rule="evenodd" d="M31.8772 53.0473V54.9952H35.4634V57.3258H31.8772V60.7099H28.6005V50.7166H36.3793V53.0473H31.8772Z" fill="white"/>
<path fill-rule="evenodd" clip-rule="evenodd" d="M46.7596 60.7099H43.5002C43.5002 60.7099 41.8833 57.5795 41.7414 57.3301H40.6836V60.7228H37.6736V50.7253H42.7649C45.1471 50.7253 46.4629 51.9207 46.4629 54.0965C46.4674 54.6765 46.2949 55.2442 45.9684 55.7236C45.6418 56.2031 45.1768 56.5715 44.6354 56.7797C44.9106 57.2613 46.7596 60.7099 46.7596 60.7099Z" fill="white"/>
<path fill-rule="evenodd" clip-rule="evenodd" d="M56.7615 71.8427V75.846H54.5469V79.0969H49.6492V75.846H42.6617V79.0969H28.4501C28.3544 77.6501 28.7715 76.2159 29.6283 75.0462C31.0301 73.1413 33.3607 71.89 35.4591 70.6172C36.3191 70.0969 37.6693 69.4433 37.6693 68.2436C37.6693 66.7601 36.8093 66.2398 35.6913 66.2398C33.8079 66.2398 33.1715 67.6029 33.2188 69.6067H28.7984C28.5361 65.1089 31.3354 62.5202 35.7601 62.5202C39.7419 62.5202 42.4467 64.1929 42.4467 67.6803C42.4467 71.8771 38.353 73.1929 35.2656 75.0763V75.1021H42.3693V71.4213L49.8599 62.7094H54.5469V71.8427H56.7615Z" fill="white"/>
<path fill-rule="evenodd" clip-rule="evenodd" d="M57.7031 60.7099H54.4437L54.0567 59.3855H50.8059L50.4275 60.7099H47.2283L50.8059 50.7253H54.1341L57.7031 60.7099Z" fill="white"/>
<path fill-rule="evenodd" clip-rule="evenodd" d="M67.5244 50.7253V60.7099H64.5273L61.4657 55.2532H61.4356V60.7099H58.5245V50.7253H61.6764L64.5832 56.0616H64.6133V50.7253H67.5244Z" fill="white"/>
<path fill-rule="evenodd" clip-rule="evenodd" d="M78.6228 56.7969C78.6228 58.805 76.9888 60.9464 74.0605 60.9464C70.8311 60.9464 68.995 58.6717 68.995 55.7176C68.995 52.57 70.9859 50.4844 74.0605 50.4844C76.8082 50.4844 78.3132 51.9421 78.5841 54.4448H75.5741C75.5395 54.0418 75.3543 53.6666 75.0554 53.3941C74.7566 53.1215 74.366 52.9716 73.9616 52.9742C72.5296 52.9742 72.0652 54.376 72.0652 55.7176C72.0652 57.0592 72.5296 58.4567 73.9616 58.4567C75.0022 58.4567 75.4064 57.7343 75.5913 56.7969H78.6228Z" fill="white"/>
<path fill-rule="evenodd" clip-rule="evenodd" d="M80.0504 81.9392C78.7002 84.0892 73.9014 86.3725 68.1092 87.6711C60.7992 89.3008 54.4609 88.7418 53.9406 86.4284C53.4203 84.115 58.933 80.8986 66.2215 79.2603C73.5101 77.622 79.8655 78.1853 80.3858 80.503C80.4297 80.7526 80.4226 81.0085 80.3649 81.2554C80.3073 81.5022 80.2003 81.7348 80.0504 81.9392V81.9392Z" fill="white"/>
<path fill-rule="evenodd" clip-rule="evenodd" d="M83.2668 53.0473V54.5523H87.3906V56.8786H83.2668V58.3793H88.2377V60.7099H79.9902V50.7166H88.2377V53.0473H83.2668Z" fill="white"/>
<path fill-rule="evenodd" clip-rule="evenodd" d="M91.1058 84.158C88.6591 88.028 80.0289 92.1646 69.6357 94.4781C59.2426 96.7915 49.6535 96.727 45.8007 94.2802C45.4017 94.0606 45.0502 93.7639 44.7668 93.4074C44.4833 93.0509 44.2735 92.6416 44.1495 92.2033C43.7496 90.4102 45.2417 88.3333 48.4495 86.1833C48.4667 86.1727 48.4873 86.1688 48.5072 86.1725C48.527 86.1762 48.5449 86.1871 48.5572 86.2031C48.5695 86.2192 48.5754 86.2392 48.5738 86.2594C48.5722 86.2796 48.5631 86.2984 48.5484 86.3123C46.6736 87.8216 45.8265 89.2535 46.0974 90.4618C46.1975 90.822 46.3695 91.1582 46.603 91.4501C46.8366 91.742 47.1268 91.9836 47.4562 92.1603C50.8145 94.2845 59.7242 94.3103 69.1154 92.2033C80.9921 89.5416 89.9964 84.4633 89.188 80.8384C88.9171 79.6343 87.5411 78.6883 85.2062 78.1336C85.184 78.1294 85.1644 78.1167 85.1515 78.0982C85.1387 78.0797 85.1336 78.0569 85.1374 78.0347C85.1432 78.0147 85.1559 77.9973 85.1731 77.9856C85.1904 77.9738 85.2112 77.9684 85.232 77.9702C89.0719 78.5507 91.3079 79.802 91.7121 81.5909C91.7871 82.0376 91.7721 82.4948 91.6679 82.9356C91.5638 83.3764 91.3727 83.792 91.1058 84.158V84.158Z" fill="white"/>
<path fill-rule="evenodd" clip-rule="evenodd" d="M31.8772 53.0473V54.9952H35.4634V57.3258H31.8772V60.7099H28.6005V50.7166H36.3793V53.0473H31.8772Z" fill="white"/>
<path fill-rule="evenodd" clip-rule="evenodd" d="M46.7596 60.7099H43.5002C43.5002 60.7099 41.8833 57.5795 41.7414 57.3301H40.6836V60.7228H37.6736V50.7253H42.7649C45.1471 50.7253 46.4629 51.9207 46.4629 54.0965C46.4674 54.6765 46.2949 55.2442 45.9684 55.7236C45.6418 56.2031 45.1768 56.5715 44.6354 56.7797C44.9106 57.2613 46.7596 60.7099 46.7596 60.7099Z" fill="white"/>
<path fill-rule="evenodd" clip-rule="evenodd" d="M56.7615 71.8427V75.846H54.5469V79.0969H49.6492V75.846H42.6617V79.0969H28.4501C28.3544 77.6501 28.7715 76.2159 29.6283 75.0462C31.0301 73.1413 33.3607 71.89 35.4591 70.6172C36.3191 70.0969 37.6693 69.4433 37.6693 68.2436C37.6693 66.7601 36.8093 66.2398 35.6913 66.2398C33.8079 66.2398 33.1715 67.6029 33.2188 69.6067H28.7984C28.5361 65.1089 31.3354 62.5202 35.7601 62.5202C39.7419 62.5202 42.4467 64.1929 42.4467 67.6803C42.4467 71.8771 38.353 73.1929 35.2656 75.0763V75.1021H42.3693V71.4213L49.8599 62.7094H54.5469V71.8427H56.7615Z" fill="white"/>
<path fill-rule="evenodd" clip-rule="evenodd" d="M57.7031 60.7099H54.4437L54.0567 59.3855H50.8059L50.4275 60.7099H47.2283L50.8059 50.7253H54.1341L57.7031 60.7099Z" fill="white"/>
<path fill-rule="evenodd" clip-rule="evenodd" d="M67.5244 50.7253V60.7099H64.5273L61.4657 55.2532H61.4356V60.7099H58.5245V50.7253H61.6764L64.5832 56.0616H64.6133V50.7253H67.5244Z" fill="white"/>
<path fill-rule="evenodd" clip-rule="evenodd" d="M78.6228 56.7969C78.6228 58.805 76.9888 60.9464 74.0605 60.9464C70.8311 60.9464 68.995 58.6717 68.995 55.7176C68.995 52.57 70.9859 50.4844 74.0605 50.4844C76.8082 50.4844 78.3132 51.9421 78.5841 54.4448H75.5741C75.5395 54.0418 75.3543 53.6666 75.0554 53.3941C74.7566 53.1215 74.366 52.9716 73.9616 52.9742C72.5296 52.9742 72.0652 54.376 72.0652 55.7176C72.0652 57.0592 72.5296 58.4567 73.9616 58.4567C75.0022 58.4567 75.4064 57.7343 75.5913 56.7969H78.6228Z" fill="white"/>
<path fill-rule="evenodd" clip-rule="evenodd" d="M80.0504 81.9392C78.7002 84.0892 73.9014 86.3725 68.1092 87.6711C60.7992 89.3008 54.4609 88.7418 53.9406 86.4284C53.4203 84.115 58.933 80.8986 66.2215 79.2603C73.5101 77.622 79.8655 78.1853 80.3858 80.503C80.4297 80.7526 80.4226 81.0085 80.3649 81.2554C80.3073 81.5022 80.2003 81.7348 80.0504 81.9392V81.9392Z" fill="white"/>
<path fill-rule="evenodd" clip-rule="evenodd" d="M83.2668 53.0473V54.5523H87.3906V56.8786H83.2668V58.3793H88.2377V60.7099H79.9902V50.7166H88.2377V53.0473H83.2668Z" fill="white"/>
<path fill-rule="evenodd" clip-rule="evenodd" d="M91.1058 84.158C88.6591 88.028 80.0289 92.1646 69.6357 94.4781C59.2426 96.7915 49.6535 96.727 45.8007 94.2802C45.4017 94.0606 45.0502 93.7639 44.7668 93.4074C44.4833 93.0509 44.2735 92.6416 44.1495 92.2033C43.7496 90.4102 45.2417 88.3333 48.4495 86.1833C48.4667 86.1727 48.4873 86.1688 48.5072 86.1725C48.527 86.1762 48.5449 86.1871 48.5572 86.2031C48.5695 86.2192 48.5754 86.2392 48.5738 86.2594C48.5722 86.2796 48.5631 86.2984 48.5484 86.3123C46.6736 87.8216 45.8265 89.2535 46.0974 90.4618C46.1975 90.822 46.3695 91.1582 46.603 91.4501C46.8366 91.742 47.1268 91.9836 47.4562 92.1603C50.8145 94.2845 59.7242 94.3103 69.1154 92.2033C80.9921 89.5416 89.9964 84.4633 89.188 80.8384C88.9171 79.6343 87.5411 78.6883 85.2062 78.1336C85.184 78.1294 85.1644 78.1167 85.1515 78.0982C85.1387 78.0797 85.1336 78.0569 85.1374 78.0347C85.1432 78.0147 85.1559 77.9973 85.1731 77.9856C85.1904 77.9738 85.2112 77.9684 85.232 77.9702C89.0719 78.5507 91.3079 79.802 91.7121 81.5909C91.7871 82.0376 91.7721 82.4948 91.6679 82.9356C91.5638 83.3764 91.3727 83.792 91.1058 84.158V84.158Z" fill="white"/>
<path d="M31.8772 53.0473V54.9952H35.4634V57.3258H31.8772V60.7099H28.6005V50.7166H36.3793V53.0473H31.8772Z" fill="white"/>
<path d="M46.7596 60.7099H43.5002C43.5002 60.7099 41.8833 57.5795 41.7414 57.3301H40.6836V60.7228H37.6736V50.7253H42.7649C45.1471 50.7253 46.4629 51.9207 46.4629 54.0965C46.4674 54.6765 46.2949 55.2442 45.9684 55.7236C45.6418 56.2031 45.1768 56.5715 44.6354 56.7797C44.9106 57.2613 46.7596 60.7099 46.7596 60.7099Z" fill="white"/>
<path d="M56.7615 71.8427V75.846H54.5469V79.0969H49.6492V75.846H42.6617V79.0969H28.4501C28.3544 77.6501 28.7715 76.2159 29.6283 75.0462C31.0301 73.1413 33.3607 71.89 35.4591 70.6172C36.3191 70.0969 37.6693 69.4433 37.6693 68.2436C37.6693 66.7601 36.8093 66.2398 35.6913 66.2398C33.8079 66.2398 33.1715 67.6029 33.2188 69.6067H28.7984C28.5361 65.1089 31.3354 62.5202 35.7601 62.5202C39.7419 62.5202 42.4467 64.1929 42.4467 67.6803C42.4467 71.8771 38.353 73.1929 35.2656 75.0763V75.1021H42.3693V71.4213L49.8599 62.7094H54.5469V71.8427H56.7615Z" fill="white"/>
<path d="M57.7031 60.7099H54.4437L54.0567 59.3855H50.8059L50.4275 60.7099H47.2283L50.8059 50.7253H54.1341L57.7031 60.7099Z" fill="white"/>
<path d="M67.5244 50.7253V60.7099H64.5273L61.4657 55.2532H61.4356V60.7099H58.5245V50.7253H61.6764L64.5832 56.0616H64.6133V50.7253H67.5244Z" fill="white"/>
<path d="M78.6228 56.7969C78.6228 58.805 76.9888 60.9464 74.0605 60.9464C70.8311 60.9464 68.995 58.6717 68.995 55.7176C68.995 52.57 70.9859 50.4844 74.0605 50.4844C76.8082 50.4844 78.3132 51.9421 78.5841 54.4448H75.5741C75.5395 54.0418 75.3543 53.6666 75.0554 53.3941C74.7566 53.1215 74.366 52.9716 73.9616 52.9742C72.5296 52.9742 72.0652 54.376 72.0652 55.7176C72.0652 57.0592 72.5296 58.4567 73.9616 58.4567C75.0022 58.4567 75.4064 57.7343 75.5913 56.7969H78.6228Z" fill="white"/>
<path d="M80.0504 81.9392C78.7002 84.0892 73.9014 86.3725 68.1092 87.6711C60.7992 89.3008 54.4609 88.7418 53.9406 86.4284C53.4203 84.115 58.933 80.8986 66.2215 79.2603C73.5101 77.622 79.8655 78.1853 80.3858 80.503C80.4297 80.7526 80.4226 81.0085 80.3649 81.2554C80.3073 81.5022 80.2003 81.7348 80.0504 81.9392V81.9392Z" fill="white"/>
<path d="M83.2668 53.0473V54.5523H87.3906V56.8786H83.2668V58.3793H88.2377V60.7099H79.9902V50.7166H88.2377V53.0473H83.2668Z" fill="white"/>
<path d="M91.1058 84.158C88.6591 88.028 80.0289 92.1646 69.6357 94.4781C59.2426 96.7915 49.6535 96.727 45.8007 94.2802C45.4017 94.0606 45.0502 93.7639 44.7668 93.4074C44.4833 93.0509 44.2735 92.6416 44.1495 92.2033C43.7496 90.4102 45.2417 88.3333 48.4495 86.1833C48.4667 86.1727 48.4873 86.1688 48.5072 86.1725C48.527 86.1762 48.5449 86.1871 48.5572 86.2031C48.5695 86.2192 48.5754 86.2392 48.5738 86.2594C48.5722 86.2796 48.5631 86.2984 48.5484 86.3123C46.6736 87.8216 45.8265 89.2535 46.0974 90.4618C46.1975 90.822 46.3695 91.1582 46.603 91.4501C46.8366 91.742 47.1268 91.9836 47.4562 92.1603C50.8145 94.2845 59.7242 94.3103 69.1154 92.2033C80.9921 89.5416 89.9964 84.4633 89.188 80.8384C88.9171 79.6343 87.5411 78.6883 85.2062 78.1336C85.184 78.1294 85.1644 78.1167 85.1515 78.0982C85.1387 78.0797 85.1336 78.0569 85.1374 78.0347C85.1432 78.0147 85.1559 77.9973 85.1731 77.9856C85.1904 77.9738 85.2112 77.9684 85.232 77.9702C89.0719 78.5507 91.3079 79.802 91.7121 81.5909C91.7871 82.0376 91.7721 82.4948 91.6679 82.9356C91.5638 83.3764 91.3727 83.792 91.1058 84.158V84.158Z" fill="white"/>
<path d="M77.9004 80.4944C77.8559 80.3331 77.7787 80.1827 77.6737 80.0526C77.5686 79.9224 77.438 79.8152 77.2898 79.7375C75.6472 78.6926 71.1408 78.7141 66.3376 79.7892C61.5345 80.8642 57.4538 82.7648 56.4003 84.4203C56.3017 84.5551 56.2308 84.7081 56.1916 84.8705C56.1525 85.0329 56.146 85.2014 56.1724 85.3663C56.2175 85.5278 56.2949 85.6785 56.3998 85.8093C56.5048 85.9401 56.6351 86.0483 56.783 86.1274C58.4256 87.1723 62.932 87.1465 67.7351 86.0758C73.7337 84.7213 78.2917 82.223 77.9004 80.4944ZM77.9004 80.4944C77.8559 80.3331 77.7787 80.1827 77.6737 80.0526C77.5686 79.9224 77.438 79.8152 77.2898 79.7375C75.6472 78.6926 71.1408 78.7141 66.3376 79.7892C61.5345 80.8642 57.4538 82.7648 56.4003 84.4203C56.3017 84.5551 56.2308 84.7081 56.1916 84.8705C56.1525 85.0329 56.146 85.2014 56.1724 85.3663C56.2175 85.5278 56.2949 85.6785 56.3998 85.8093C56.5048 85.9401 56.6351 86.0483 56.783 86.1274C58.4256 87.1723 62.932 87.1465 67.7351 86.0758C73.7337 84.7213 78.2917 82.223 77.9004 80.4944ZM77.9004 80.4944C77.8559 80.3331 77.7787 80.1827 77.6737 80.0526C77.5686 79.9224 77.438 79.8152 77.2898 79.7375C75.6472 78.6926 71.1408 78.7141 66.3376 79.7892C61.5345 80.8642 57.4538 82.7648 56.4003 84.4203C56.3017 84.5551 56.2308 84.7081 56.1916 84.8705C56.1525 85.0329 56.146 85.2014 56.1724 85.3663C56.2175 85.5278 56.2949 85.6785 56.3998 85.8093C56.5048 85.9401 56.6351 86.0483 56.783 86.1274C58.4256 87.1723 62.932 87.1465 67.7351 86.0758C73.7337 84.7213 78.2917 82.223 77.9004 80.4944ZM36.3793 53.0301V50.7166H28.6006V60.7099H31.8901V57.3301H35.4763V54.9952H31.8901V53.0301H36.3793ZM44.6354 56.7625C45.1768 56.5543 45.6418 56.1858 45.9684 55.7064C46.2949 55.227 46.4674 54.6593 46.4629 54.0793C46.4629 51.9034 45.1471 50.708 42.7649 50.708H37.665V60.7099H40.675V57.3301H41.7328C41.8747 57.5924 43.4787 60.7228 43.4787 60.7228H46.751C46.751 60.7228 44.9106 57.2613 44.6354 56.7797V56.7625ZM54.5254 71.8126V62.7094H49.8599L42.3692 71.4213V75.0935H35.2441V75.0677C38.3315 73.1843 42.4251 71.8685 42.4251 67.6717C42.4251 64.1929 39.7204 62.5116 35.7386 62.5116C31.3354 62.5116 28.536 65.0916 28.7984 69.5981H33.2188C33.1715 67.5943 33.8079 66.2312 35.6913 66.2312C36.7964 66.2312 37.6693 66.7515 37.6693 68.235C37.6693 69.4347 36.3019 70.0883 35.4591 70.6086C33.3607 71.8986 31.0086 73.1327 29.6412 75.0376C28.7779 76.2079 28.356 77.6456 28.45 79.0968H42.6402V75.846H49.6492V79.0968H54.5469V75.846H56.7615V71.8427L54.5254 71.8126ZM54.0954 50.6951H50.8102L47.2283 60.7099H50.4275L50.8102 59.3855H54.061L54.448 60.7099H57.6903L54.0954 50.6951ZM64.5746 50.6951V56.0616H64.5703L61.6764 50.7252H58.5245V60.7099H61.4356V55.2532H61.4657L64.5273 60.7099H67.5373V50.7252L64.5746 50.6951ZM77.9004 80.4944C77.8559 80.3331 77.7787 80.1827 77.6737 80.0526C77.5686 79.9224 77.438 79.8152 77.2898 79.7375C75.6472 78.6926 71.1408 78.7141 66.3376 79.7892C61.5345 80.8642 57.4538 82.7648 56.4003 84.4203C56.3017 84.5551 56.2308 84.7081 56.1916 84.8705C56.1525 85.0329 56.146 85.2014 56.1724 85.3663C56.2175 85.5278 56.2949 85.6785 56.3998 85.8093C56.5048 85.9401 56.6351 86.0483 56.783 86.1274C58.4256 87.1723 62.932 87.1465 67.7351 86.0758C73.7337 84.7213 78.2917 82.223 77.9004 80.4944ZM75.5999 56.7969C75.415 57.7343 75.0108 58.4567 73.9702 58.4567C72.5383 58.4567 72.0739 57.0635 72.0739 55.7176C72.0739 54.3717 72.5383 52.9742 73.9702 52.9742C74.3746 52.9716 74.7652 53.1215 75.0641 53.3941C75.3629 53.6666 75.5481 54.0418 75.5827 54.4448H78.5927C78.3218 51.9421 76.8168 50.5016 74.0691 50.4844C70.9946 50.4844 69.0036 52.57 69.0036 55.7176C69.0036 58.6717 70.8398 60.9464 74.0691 60.9464C76.9974 60.9464 78.6314 58.7964 78.6314 56.7969H75.5999ZM88.2205 53.0301V50.7166H79.9902V60.7099H88.2205V58.3793H83.2668V56.9001H87.3906V54.5523H83.2668V53.0301H88.2205ZM77.9004 80.4944C77.8559 80.3331 77.7787 80.1827 77.6737 80.0526C77.5686 79.9224 77.438 79.8152 77.2898 79.7375C75.6472 78.6926 71.1408 78.7141 66.3376 79.7892C61.5345 80.8642 57.4538 82.7648 56.4003 84.4203C56.3017 84.5551 56.2308 84.7081 56.1916 84.8705C56.1525 85.0329 56.146 85.2014 56.1724 85.3663C56.2175 85.5278 56.2949 85.6785 56.3998 85.8093C56.5048 85.9401 56.6351 86.0483 56.783 86.1274C58.4256 87.1723 62.932 87.1465 67.7351 86.0758C73.7337 84.7213 78.2917 82.223 77.9004 80.4944ZM77.9004 80.4944C77.8559 80.3331 77.7787 80.1827 77.6737 80.0526C77.5686 79.9224 77.438 79.8152 77.2898 79.7375C75.6472 78.6926 71.1408 78.7141 66.3376 79.7892C61.5345 80.8642 57.4538 82.7648 56.4003 84.4203C56.3017 84.5551 56.2308 84.7081 56.1916 84.8705C56.1525 85.0329 56.146 85.2014 56.1724 85.3663C56.2175 85.5278 56.2949 85.6785 56.3998 85.8093C56.5048 85.9401 56.6351 86.0483 56.783 86.1274C58.4256 87.1723 62.932 87.1465 67.7351 86.0758C73.7337 84.7213 78.2917 82.223 77.9004 80.4944ZM77.9004 80.4944C77.8559 80.3331 77.7787 80.1827 77.6737 80.0526C77.5686 79.9224 77.438 79.8152 77.2898 79.7375C75.6472 78.6926 71.1408 78.7141 66.3376 79.7892C61.5345 80.8642 57.4538 82.7648 56.4003 84.4203C56.3017 84.5551 56.2308 84.7081 56.1916 84.8705C56.1525 85.0329 56.146 85.2014 56.1724 85.3663C56.2175 85.5278 56.2949 85.6785 56.3998 85.8093C56.5048 85.9401 56.6351 86.0483 56.783 86.1274C58.4256 87.1723 62.932 87.1465 67.7351 86.0758C73.7337 84.7213 78.2917 82.223 77.9004 80.4944ZM77.9004 80.4944C77.8559 80.3331 77.7787 80.1827 77.6737 80.0526C77.5686 79.9224 77.438 79.8152 77.2898 79.7375C75.6472 78.6926 71.1408 78.7141 66.3376 79.7892C61.5345 80.8642 57.4538 82.7648 56.4003 84.4203C56.3017 84.5551 56.2308 84.7081 56.1916 84.8705C56.1525 85.0329 56.146 85.2014 56.1724 85.3663C56.2175 85.5278 56.2949 85.6785 56.3998 85.8093C56.5048 85.9401 56.6351 86.0483 56.783 86.1274C58.4256 87.1723 62.932 87.1465 67.7351 86.0758C73.7337 84.7213 78.2917 82.223 77.9004 80.4944ZM77.9004 80.4944C77.8559 80.3331 77.7787 80.1827 77.6737 80.0526C77.5686 79.9224 77.438 79.8152 77.2898 79.7375C75.6472 78.6926 71.1408 78.7141 66.3376 79.7892C61.5345 80.8642 57.4538 82.7648 56.4003 84.4203C56.3017 84.5551 56.2308 84.7081 56.1916 84.8705C56.1525 85.0329 56.146 85.2014 56.1724 85.3663C56.2175 85.5278 56.2949 85.6785 56.3998 85.8093C56.5048 85.9401 56.6351 86.0483 56.783 86.1274C58.4256 87.1723 62.932 87.1465 67.7351 86.0758C73.7337 84.7213 78.2917 82.223 77.9004 80.4944Z" fill="#29B1E6"/>
<path d="M22 44V112.637H32.3201C32.2212 112.585 32.1266 112.53 32.0363 112.474C29.925 111.248 28.6478 109.747 28.2522 107.993C28.1697 107.606 28.1279 107.211 28.1275 106.815C28.1275 105.134 28.8844 103.34 30.398 101.457C30.4099 101.439 30.4287 101.426 30.45 101.422C30.4714 101.417 30.4937 101.421 30.5119 101.433C30.5302 101.445 30.5429 101.464 30.5473 101.485C30.5518 101.507 30.5475 101.529 30.5356 101.547C29.6756 103.022 29.4004 104.42 29.6756 105.701C30.5356 109.537 36.3707 111.867 44.9665 112.474C46.3726 112.577 47.8518 112.628 49.3955 112.637H50.1179C57.8403 112.513 65.5281 111.576 73.0543 109.842C80.5248 108.216 87.8064 105.82 94.7823 102.691V94.2416C88.887 97.7977 80.6309 100.881 71.502 102.928C56.9335 106.187 43.4228 106.019 37.8886 102.498C36.5341 101.638 35.7128 100.601 35.4462 99.4188C35.0162 97.5397 36.074 95.3596 38.4562 93.115C38.4714 93.1007 38.4914 93.0928 38.5121 93.0928C38.5329 93.0928 38.5529 93.1007 38.568 93.115C38.5817 93.1312 38.5892 93.1518 38.5892 93.173C38.5892 93.1942 38.5817 93.2148 38.568 93.2311C37.3898 94.7017 36.9297 96.082 37.2092 97.3247C37.4371 98.3309 38.1423 99.2253 39.3162 99.9692C44.4032 103.194 57.0883 103.285 70.8742 100.197C80.5836 98.0471 89.2826 94.6071 94.7608 90.8574V44H22ZM79.9902 50.7166H88.2205V53.0301H83.2668V54.5351H87.3906V56.9001H83.2668V58.4008H88.2205V60.7314H79.9902V50.7166ZM74.0605 50.4844C76.8082 50.4844 78.3132 51.9422 78.5841 54.4448H75.5741C75.5395 54.0418 75.3543 53.6666 75.0555 53.3941C74.7566 53.1215 74.366 52.9716 73.9616 52.9742C72.5297 52.9742 72.0653 54.376 72.0653 55.7176C72.0653 57.0592 72.5297 58.4567 73.9616 58.4567C75.0022 58.4567 75.4064 57.7343 75.5913 56.7969H78.6013C78.6013 58.805 76.9673 60.9464 74.039 60.9464C70.8097 60.9464 68.9735 58.6717 68.9735 55.7176C68.995 52.57 70.986 50.4844 74.0605 50.4844V50.4844ZM58.5245 50.7252H61.6764L64.5703 56.0616H64.6004V50.7252H67.5115V60.7099H64.5015L61.4657 55.2532H61.4356V60.7099H58.5245V50.7252ZM50.7844 50.7252H54.1126L57.6903 60.7099H54.4437L54.0567 59.3855H50.8102L50.4318 60.7099H47.2283L50.7844 50.7252ZM37.6435 50.7252H42.7649C45.1471 50.7252 46.4629 51.9207 46.4629 54.0965C46.4674 54.6765 46.2949 55.2442 45.9684 55.7236C45.6418 56.2031 45.1768 56.5715 44.6354 56.7797C44.9106 57.2613 46.7596 60.7099 46.7596 60.7099H43.5002C43.5002 60.7099 41.8833 57.5795 41.7414 57.3301H40.6836V60.7228H37.6736L37.6435 50.7252ZM28.579 50.7252H36.3793V53.0301H31.8901V54.978H35.4763V57.3301H31.8901V60.7142H28.6005L28.579 50.7252ZM91.1058 84.158C88.6591 88.028 80.0289 92.1646 69.6357 94.4781C59.2426 96.7915 49.6535 96.727 45.8007 94.2803C45.4016 94.0606 45.0502 93.7639 44.7668 93.4074C44.4833 93.0509 44.2735 92.6416 44.1495 92.2033C43.7496 90.4102 45.2417 88.3333 48.4495 86.1833C48.4667 86.1727 48.4873 86.1689 48.5071 86.1725C48.527 86.1762 48.5449 86.1871 48.5572 86.2032C48.5695 86.2192 48.5754 86.2393 48.5738 86.2594C48.5721 86.2796 48.5631 86.2984 48.5484 86.3123C46.6736 87.8216 45.8265 89.2535 46.0974 90.4618C46.1975 90.822 46.3695 91.1582 46.603 91.4501C46.8366 91.742 47.1268 91.9836 47.4562 92.1603C50.8145 94.2846 59.7242 94.3104 69.1154 92.2033C80.9921 89.5416 89.9964 84.4633 89.188 80.8384C88.9171 79.6344 87.5411 78.6883 85.2062 78.1336C85.184 78.1295 85.1644 78.1168 85.1515 78.0983C85.1387 78.0798 85.1336 78.057 85.1374 78.0347C85.1432 78.0147 85.1559 77.9973 85.1731 77.9856C85.1904 77.9738 85.2112 77.9684 85.232 77.9702C89.0719 78.5507 91.3079 79.8021 91.7121 81.5909C91.7871 82.0376 91.7721 82.4948 91.6679 82.9356C91.5638 83.3764 91.3727 83.792 91.1058 84.158V84.158ZM66.2215 79.2603C73.5316 77.6262 79.8655 78.1852 80.3858 80.503C80.4291 80.7519 80.4217 81.0071 80.364 81.2531C80.3064 81.4991 80.1997 81.731 80.0504 81.9349C78.7002 84.0849 73.9014 86.3682 68.1092 87.6668C60.7992 89.2965 54.4609 88.7375 53.9406 86.4241C53.4203 84.1107 58.933 80.8986 66.2215 79.2603ZM56.7614 75.8202H54.5469V79.0711H49.6492V75.846H42.6616V79.0969H28.45C28.3543 77.6501 28.7715 76.2159 29.6283 75.0462C29.7143 74.9258 29.8003 74.8097 29.8949 74.6979C29.9895 74.5861 30.0239 74.5388 30.0927 74.4657L30.2475 74.2894C30.3593 74.1733 30.4711 74.0572 30.5915 73.9454C30.7119 73.8336 30.9398 73.6186 31.1247 73.4638C31.3096 73.309 31.4687 73.18 31.6493 73.0338C32.8757 72.1617 34.1474 71.355 35.4591 70.6172C36.3191 70.0969 37.6693 69.4433 37.6693 68.2436C37.6693 66.7601 36.8093 66.2398 35.6913 66.2398C33.8079 66.2398 33.1715 67.6029 33.2188 69.6067H28.7983C28.536 65.1089 31.3354 62.5202 35.7601 62.5202C39.7419 62.5202 42.4466 64.1929 42.4466 67.6803C42.4466 67.7878 42.4466 67.891 42.4466 67.9942V68.1404C42.4379 68.3369 42.4135 68.5325 42.3735 68.7252C42.3595 68.8149 42.3408 68.9039 42.3176 68.9918C42.3176 69.0864 42.2746 69.1767 42.2445 69.267C42.2144 69.3573 42.1886 69.439 42.1585 69.525C42.1071 69.6725 42.0453 69.8162 41.9736 69.955C41.918 70.0756 41.8563 70.1932 41.7887 70.3076C41.7336 70.4095 41.6733 70.5085 41.6081 70.6043C41.4765 70.7925 41.3328 70.972 41.1781 71.1418C41.0792 71.2579 40.9717 71.374 40.8599 71.4858C40.7481 71.5976 40.6406 71.7051 40.5245 71.8083C40.0989 72.1829 39.6445 72.5237 39.1657 72.8274C39.0152 72.9263 38.8604 73.0252 38.7013 73.1198L38.2283 73.3993L37.3683 73.8723L37.2436 73.9411C36.5685 74.3109 35.8891 74.6764 35.2527 75.0634V75.0892H42.3692V71.4213L49.8599 62.7094H54.5469V71.8427H56.7614V75.8202Z" fill="#29B1E6"/>
<path d="M54.1341 50.7253H50.8102L47.2283 60.7099H50.4275L50.8102 59.3855H54.061L54.448 60.7099H57.6903L54.1341 50.7253ZM51.4251 57.3301L52.4399 53.7568L53.4934 57.3301H51.4251ZM36.3793 53.0301V50.7167H28.6005V60.7099H31.8901V57.3301H35.4763V54.9952H31.8901V53.0301H36.3793ZM88.2205 53.0301V50.7167H79.9902V60.7099H88.2205V58.3793H83.2668V56.9001H87.3906V54.5523H83.2668V53.0301H88.2205ZM44.6354 56.7797C45.1768 56.5715 45.6418 56.2031 45.9683 55.7236C46.2949 55.2442 46.4674 54.6765 46.4629 54.0965C46.4629 51.9207 45.1471 50.7253 42.7648 50.7253H37.665V60.7099H40.675V57.3301H41.7328C41.8747 57.5924 43.4786 60.7228 43.4786 60.7228H46.751C46.751 60.7228 44.9106 57.2613 44.6354 56.7797ZM42.567 55.021H40.6836V53.0301H42.567C42.7017 53.0091 42.8395 53.0204 42.9689 53.0631C43.0984 53.1058 43.2158 53.1787 43.3116 53.2757C43.4073 53.3727 43.4787 53.4911 43.5197 53.6211C43.5607 53.7511 43.5702 53.889 43.5475 54.0234C43.571 54.1581 43.562 54.2965 43.5214 54.4271C43.4807 54.5576 43.4095 54.6766 43.3137 54.7742C43.2178 54.8717 43.1001 54.945 42.9702 54.9879C42.8404 55.0308 42.7022 55.0422 42.567 55.021ZM75.6042 56.7969C75.4193 57.7343 75.0151 58.4567 73.9745 58.4567C72.5426 58.4567 72.0782 57.0635 72.0782 55.7176C72.0782 54.3717 72.5426 52.9742 73.9745 52.9742C74.3789 52.9716 74.7695 53.1215 75.0684 53.3941C75.3672 53.6666 75.5524 54.0418 75.587 54.4448H78.597C78.3261 51.9422 76.8211 50.5017 74.0734 50.4845C70.9988 50.4845 69.0079 52.57 69.0079 55.7176C69.0079 58.6717 70.844 60.9464 74.0734 60.9464C77.0017 60.9464 78.6357 58.7964 78.6357 56.7969H75.6042ZM64.6133 50.7253V56.0616H64.5703L61.6764 50.7253H58.5245V60.7099H61.4356V55.2532H61.4657L64.5273 60.7099H67.5373V50.7253H64.6133Z" fill="white"/>
<path d="M54.5469 71.8427V62.7094H49.8599L42.3692 71.4213V75.0935H35.2441V75.0677C38.3315 73.1843 42.4251 71.8685 42.4251 67.6717C42.4251 64.1929 39.7204 62.5116 35.7386 62.5116C31.3354 62.5116 28.536 65.0916 28.7984 69.5981H33.2188C33.1715 67.5943 33.8079 66.2312 35.6913 66.2312C36.7964 66.2312 37.6693 66.7515 37.6693 68.235C37.6693 69.4347 36.3019 70.0883 35.4591 70.6086C33.3607 71.8986 31.0086 73.1327 29.6412 75.0376C28.7779 76.2079 28.356 77.6457 28.45 79.0968H42.6402V75.846H49.6492V79.0968H54.5469V75.846H56.7615V71.8427H54.5469ZM49.6492 71.8427H45.6502L49.6492 67.2503V71.8427Z" fill="white"/>
</svg>
