<svg width="116" height="160" viewBox="0 0 116 160" fill="none" xmlns="http://www.w3.org/2000/svg">
<rect width="116" height="160" fill="#414141"/>
<path d="M101.82 80.7041C102.697 80.7041 103.408 79.9934 103.408 79.1167C103.408 78.24 102.697 77.5293 101.82 77.5293C100.943 77.5293 100.233 78.24 100.233 79.1167C100.233 79.9934 100.943 80.7041 101.82 80.7041Z" fill="#FFCC00"/>
<path d="M101.82 86.7641C102.697 86.7641 103.408 86.0534 103.408 85.1767C103.408 84.3 102.697 83.5893 101.82 83.5893C100.943 83.5893 100.233 84.3 100.233 85.1767C100.233 86.0534 100.943 86.7641 101.82 86.7641Z" fill="#FFCC00"/>
<path d="M69.1815 73.1409C69.0229 73.0842 68.858 73.0464 68.6958 73C68.6526 73 68.6097 73 68.5665 73C68.4861 73.023 68.4069 73.0539 68.3248 73.0679C67.5603 73.1981 67.0379 73.845 67.0723 74.6232C67.1072 75.4193 67.6746 75.9838 68.5258 76.0699C69.2605 76.1439 69.9673 75.6159 70.1344 74.8682C70.2986 74.1318 69.8954 73.3964 69.1815 73.1409Z" fill="white"/>
<path d="M34.2547 78.4183C33.5915 77.9392 32.9393 77.6571 32.2111 77.5658C31.4701 77.473 30.753 77.5579 30.0586 77.8341C29.3733 78.1066 28.8029 78.5366 28.3387 79.1054C26.968 80.7847 26.9225 83.314 28.2259 85.0429C28.8318 85.8468 29.6313 86.3708 30.598 86.6195C31.8934 86.9528 33.1106 86.7783 34.226 85.9092C34.2414 86.1652 34.2533 86.3617 34.2655 86.5626C35.0212 86.5626 35.7474 86.5626 36.4886 86.5626C36.4886 83.6102 36.4886 80.6803 36.4886 77.7409C35.7352 77.7409 35.0082 77.7409 34.2549 77.7409C34.2547 77.9485 34.2547 78.1387 34.2547 78.4183ZM33.8791 83.8184C32.8934 84.8055 31.2564 84.8466 30.3294 83.9014C29.3779 82.9307 29.4302 81.2372 30.444 80.2957C31.5305 79.2868 33.2866 79.6872 34.0991 80.7647C34.1563 80.8407 34.162 80.967 34.1641 81.0705C34.1695 81.3352 34.1686 81.6 34.1677 81.8649C34.1677 81.8667 34.1678 81.8685 34.1678 81.8703C34.1675 81.9698 34.167 82.0693 34.167 82.1689C34.167 82.2633 34.1652 82.3579 34.1635 82.4525L34.1636 82.4535C34.1595 82.6714 34.1554 82.8892 34.1728 83.1053C34.1969 83.404 34.08 83.6172 33.8791 83.8184Z" fill="white"/>
<path d="M60.1188 77.9291C58.5932 78.6528 57.8393 79.9543 57.6613 81.5863C57.5069 83.002 57.8041 84.3216 58.8264 85.3776C60.0748 86.667 61.6323 86.9753 63.3407 86.6558C64.351 86.467 65.2172 85.9907 65.8583 85.2531C65.4027 84.7931 64.9612 84.3473 64.5195 83.9015C63.5515 84.7825 62.4473 85.1891 61.1534 84.5738C60.4173 84.2238 59.915 83.4083 59.9809 82.7497C62.001 82.7497 64.023 82.7497 66.0877 82.7497C66.1058 82.4975 66.1414 82.2839 66.1313 82.0723C66.1148 81.7294 66.0937 81.3832 66.0307 81.0466C65.5067 78.248 62.6481 76.7292 60.1188 77.9291ZM60.0752 80.9986C60.0856 80.6876 60.2183 80.3914 60.432 80.1431C60.788 79.7294 61.3688 79.4486 61.9822 79.4532C62.2301 79.455 62.4707 79.5126 62.6889 79.6129C63.2466 79.8693 63.6578 80.4046 63.6702 80.9986C62.4718 80.9986 61.2737 80.9986 60.0752 80.9986Z" fill="white"/>
<path d="M79.9783 79.3258C78.7712 77.4811 76.2642 76.9696 74.4307 78.1938C74.34 78.2542 74.2477 78.3119 74.106 78.4034C74.106 78.1378 74.106 77.9471 74.106 77.7404C73.343 77.7404 72.6052 77.7404 71.8474 77.7404C71.8474 80.6864 71.8474 83.6195 71.8474 86.5548C72.6396 86.5548 73.4073 86.5548 74.2004 86.5548C74.2004 86.3966 74.2004 86.2689 74.2004 86.1408C74.2004 84.6007 74.2429 83.0587 74.1813 81.5211C74.1533 80.8233 74.4571 80.4326 74.9915 80.1304C75.2234 79.9991 75.472 79.8827 75.7274 79.81C76.9092 79.4741 77.929 80.0122 78.1727 81.0969C78.2285 81.3464 78.2472 81.6088 78.2485 81.8655C78.2556 83.2979 78.252 84.7304 78.252 86.1627C78.252 86.2887 78.252 86.4149 78.252 86.5841C79.0157 86.5841 79.715 86.5809 80.4144 86.5862C80.5898 86.5874 80.6321 86.5049 80.6304 86.3479C80.6109 84.6255 80.6146 82.9026 80.5683 81.1809C80.5508 80.5218 80.3474 79.8894 79.9783 79.3258Z" fill="white"/>
<path d="M47.281 81.1901C47.1093 78.1532 43.7037 76.5084 41.1645 78.1906C41.0713 78.2524 40.9752 78.3102 40.8473 78.3906C40.8344 78.1385 40.8244 77.9406 40.8138 77.7341C40.0624 77.7341 39.3434 77.7341 38.5916 77.7341C38.5916 80.6949 38.5916 83.6257 38.5916 86.5637C39.3801 86.5637 40.1395 86.5637 40.9396 86.5637C40.9396 86.4165 40.9396 86.2901 40.9396 86.164C40.9396 84.6026 40.983 83.0397 40.9196 81.481C40.892 80.8046 41.1822 80.4328 41.696 80.1412C41.9279 80.0094 42.1751 79.891 42.4299 79.8157C43.6021 79.4688 44.6514 80.0058 44.8919 81.0742C44.9503 81.3342 44.9718 81.6072 44.9732 81.8746C44.9808 83.3174 44.9769 84.76 44.9769 86.203C44.9769 86.3178 44.9769 86.4328 44.9769 86.5625C45.7861 86.5625 46.554 86.5625 47.3235 86.5625C47.3363 86.5114 47.3508 86.4811 47.3504 86.451C47.3327 84.6971 47.38 82.9394 47.281 81.1901Z" fill="white"/>
<path d="M17.6767 76.8495C17.7671 76.016 18.2909 75.5314 19.1302 75.5116C19.4176 75.5047 19.7051 75.5105 20.0393 75.5105C20.1484 74.9086 20.2664 74.2584 20.3875 73.5916C19.2981 73.239 17.8848 73.3859 16.9359 73.9118C15.4267 74.7479 15.2575 76.1866 15.2573 77.7271C14.4814 77.7271 13.7447 77.7271 13 77.7271C13 78.4066 13 79.0465 13 79.7253C13.7562 79.7253 14.4929 79.7253 15.2633 79.7253C15.2633 79.8912 15.2633 80.0179 15.2633 80.1447C15.2633 81.6628 15.2633 83.1811 15.2633 84.6994C15.2633 85.2377 15.2566 85.7763 15.2702 86.3142C15.2724 86.4042 15.3608 86.5681 15.4123 86.5692C16.1406 86.5862 16.8695 86.5805 17.6461 86.5805C17.6461 84.2777 17.6461 82.0135 17.6461 79.7062C18.591 79.7062 19.4881 79.7062 20.3736 79.7062C20.3736 79.0219 20.3736 78.3816 20.3736 77.7228C19.7145 77.7228 19.0802 77.7228 18.4457 77.7228C18.3883 77.7228 18.3352 77.7228 18.2852 77.7225V77.7228H17.6374V77.3943C17.6321 77.2676 17.6502 77.0936 17.6767 76.8495Z" fill="white"/>
<path d="M51.6248 83.9963C50.6597 83.1572 50.5553 81.5399 51.406 80.5545C52.4195 79.3805 53.8295 79.4475 55.3154 80.7572C55.8593 80.2787 56.4059 79.7978 56.9499 79.3194C56.0117 77.8626 53.6865 77.1608 51.7724 77.7368C49.795 78.3318 48.3685 80.1385 48.4601 82.4245C48.5372 84.3484 49.9182 86.0807 51.8746 86.6053C53.9455 87.1608 56.2744 86.364 57.2206 84.7649C56.624 84.3183 56.0264 83.8707 55.4293 83.4238C54.2365 84.9788 52.5113 84.7672 51.6248 83.9963Z" fill="white"/>
<path d="M23.7998 78.5547C23.7853 78.246 23.7736 77.996 23.7617 77.7423C23.0002 77.7423 22.2732 77.7423 21.5292 77.7423C21.5292 80.686 21.5292 83.6102 21.5292 86.585C22.2082 86.585 22.8537 86.5722 23.4981 86.5908C23.7855 86.5993 23.8851 86.5277 23.882 86.2186C23.8659 84.5817 23.8718 82.9444 23.8789 81.3074C23.8796 81.154 23.8998 80.9684 23.9852 80.8527C24.5041 80.1486 25.1873 79.7232 26.0873 79.7211C26.3525 79.7205 26.6179 79.7505 26.9066 79.7677C26.9957 79.0439 27.0832 78.3353 27.1734 77.6036C25.8984 77.4009 24.7768 77.6273 23.7998 78.5547Z" fill="white"/>
<path d="M67.4288 78.0837C67.4279 80.7962 67.4281 83.5085 67.4281 86.221C67.4281 86.2749 67.409 86.3408 67.4329 86.3798C67.4798 86.4554 67.55 86.5729 67.6126 86.5742C68.3215 86.588 69.0305 86.583 69.7639 86.583C69.7639 83.6035 69.7639 80.6729 69.7639 77.7455C68.9783 77.7455 68.2198 77.7455 67.4432 77.7455C67.4375 77.8722 67.4288 77.978 67.4288 78.0837Z" fill="white"/>
<path d="M83.2803 77.7271C83.3257 77.7288 83.3622 77.7256 83.3946 77.7196H82.9603C83.067 77.7209 83.1736 77.723 83.2803 77.7271Z" fill="white"/>
<path d="M85.9458 77.7228C85.9469 77.0635 85.8686 76.4359 86.3387 75.9561C86.8927 75.3904 87.6068 75.4793 88.3247 75.5681C88.445 74.9001 88.5621 74.2483 88.6842 73.5691C87.9285 73.3887 87.2226 73.332 86.5173 73.4679C85.1514 73.7309 84.1069 74.4107 83.7445 75.8324C83.6311 76.2768 83.6113 76.7471 83.5867 77.2118V77.7198H83.3946C83.3622 77.7258 83.3257 77.7287 83.2803 77.7271C83.1736 77.723 83.067 77.721 82.9601 77.7198H82.8584V77.7196C82.5898 77.7186 82.3212 77.723 82.0526 77.723C81.7987 77.723 81.5448 77.723 81.2842 77.723C81.2842 78.411 81.2842 79.0515 81.2842 79.7188C81.9408 79.7188 82.5749 79.7324 83.2082 79.7126C83.2729 79.7106 83.3265 79.7136 83.3719 79.7221H83.5716V80.0095C83.5725 80.029 83.5741 80.0473 83.5739 80.0692C83.561 82.1045 83.567 84.14 83.567 86.1755C83.567 86.3008 83.567 86.426 83.567 86.5605C84.3797 86.5605 85.1478 86.5605 85.9565 86.5605C85.9565 84.2717 85.9565 82.0069 85.9565 79.703C86.884 79.703 87.7714 79.703 88.6504 79.703C88.6504 79.0233 88.6504 78.3839 88.6504 77.723C88.181 77.723 87.7407 77.723 87.3004 77.723C86.8536 77.7228 86.4067 77.7228 85.9458 77.7228Z" fill="white"/>
<path d="M82.9601 77.7198C82.9263 77.7194 82.8923 77.7198 82.8584 77.7196V77.7198H82.9601Z" fill="white"/>
<path fill-rule="evenodd" clip-rule="evenodd" d="M34.1678 81.8703C34.1675 81.9698 34.1672 82.0693 34.1672 82.1689C34.1672 82.2633 34.1652 82.3579 34.1635 82.4525L34.1636 82.4535C34.1595 82.6714 34.1554 82.8892 34.1728 83.1053C34.1554 82.8889 34.1594 82.6707 34.1635 82.4525C34.1652 82.3579 34.167 82.2633 34.167 82.1689C34.167 82.0676 34.1673 81.9662 34.1677 81.8649C34.1686 81.6 34.1695 81.3352 34.1641 81.0705C34.1696 81.337 34.1687 81.6036 34.1678 81.8703Z" fill="white"/>
<path fill-rule="evenodd" clip-rule="evenodd" d="M60.432 80.1431C60.788 79.7294 61.3687 79.4485 61.9822 79.453C62.2301 79.4548 62.4707 79.5125 62.6889 79.6129C62.4707 79.5126 62.2301 79.455 61.9822 79.4532C61.3688 79.4486 60.788 79.7294 60.432 80.1431Z" fill="white"/>
<path fill-rule="evenodd" clip-rule="evenodd" d="M93.6175 77.5293C90.9596 77.5219 88.8605 79.5749 88.8747 82.1683C88.8892 84.7632 90.9373 86.7637 93.5798 86.7643C96.2726 86.7652 98.3394 84.7649 98.3401 82.1577C98.3409 79.5701 96.266 77.5368 93.6175 77.5293ZM91.2512 82.1655C91.2495 80.7711 92.2702 79.7172 93.6211 79.7186C94.9469 79.72 95.9661 80.7829 95.9634 82.1611C95.9604 83.5479 94.9551 84.5817 93.6088 84.5817C92.2601 84.5819 91.253 83.5496 91.2512 82.1655Z" fill="white"/>
</svg>
