<svg width="112" height="28" viewBox="0 0 112 28" fill="none" xmlns="http://www.w3.org/2000/svg">
<path d="M7.85229 20.9263C9.08108 20.9263 10.0401 20.7495 10.8493 20.3958L10.4298 17.0063C9.89029 17.1537 9.44073 17.2421 8.93123 17.2421C7.70244 17.2421 6.74338 16.6526 6.74338 14.7368V9.57895H10.6396V6.04211H6.74338V1.79789H2.5475V6.04211H0V9.57895H2.5475V15.3558C2.5475 18.8042 4.52556 20.9263 7.85229 20.9263Z" fill="white"/>
<path d="M18.2212 20.9263C20.3491 20.9263 21.9375 20.0716 22.9565 18.9221V20.6316H27.1524V6.04211H22.9565V7.75158C21.9375 6.60211 20.3491 5.74737 18.2212 5.74737C14.1452 5.74737 11.2081 9.04842 11.2081 13.3221C11.2081 17.5958 14.1452 20.9263 18.2212 20.9263ZM19.1802 17.2716C17.0523 17.2716 15.4039 15.5916 15.4039 13.3221C15.4039 11.0821 17.0523 9.37263 19.1802 9.37263C21.3081 9.37263 22.9565 11.0821 22.9565 13.3221C22.9565 15.5916 21.3081 17.2716 19.1802 17.2716Z" fill="white"/>
<path d="M33.7738 28V18.9221C34.8228 20.0716 36.3812 20.9263 38.5091 20.9263C42.6151 20.9263 45.5522 17.5958 45.5522 13.3221C45.5522 9.04842 42.6151 5.74737 38.5091 5.74737C36.3812 5.74737 34.8228 6.60211 33.7738 7.75158V6.04211H29.5779V28H33.7738ZM37.58 17.2716C35.4521 17.2716 33.7738 15.5916 33.7738 13.3221C33.7738 11.0821 35.4521 9.37263 37.58 9.37263C39.678 9.37263 41.3563 11.0821 41.3563 13.3221C41.3563 15.5916 39.678 17.2716 37.58 17.2716Z" fill="white"/>
<path d="M53.1626 20.9263C55.2905 20.9263 56.879 20.0716 57.898 18.9221V20.6316H62.0939V6.04211H57.898V7.75158C56.879 6.60211 55.2905 5.74737 53.1626 5.74737C49.0866 5.74737 46.1495 9.04842 46.1495 13.3221C46.1495 17.5958 49.0866 20.9263 53.1626 20.9263ZM54.1217 17.2716C51.9938 17.2716 50.3454 15.5916 50.3454 13.3221C50.3454 11.0821 51.9938 9.37263 54.1217 9.37263C56.2496 9.37263 57.898 11.0821 57.898 13.3221C57.898 15.5916 56.2496 17.2716 54.1217 17.2716Z" fill="white"/>
<path d="M71.5025 20.9853C74.3197 20.9853 76.6574 19.7474 77.9462 17.7726L74.8592 15.4737C74.1399 16.5642 72.9411 17.2126 71.5924 17.2126C69.4945 17.2126 67.8161 15.5621 67.8161 13.3221C67.8161 11.1116 69.4945 9.46105 71.5924 9.46105C72.9411 9.46105 74.1399 10.1095 74.8592 11.2L77.9462 8.90105C76.6275 6.92632 74.3197 5.68842 71.5025 5.68842C66.917 5.68842 63.6203 9.04842 63.6203 13.3516C63.6203 17.6253 66.917 20.9853 71.5025 20.9853Z" fill="white"/>
<path d="M86.0158 20.9263C87.2446 20.9263 88.2036 20.7495 89.0128 20.3958L88.5932 17.0063C88.0538 17.1537 87.6042 17.2421 87.0947 17.2421C85.8659 17.2421 84.9068 16.6526 84.9068 14.7368V9.57895H88.803V6.04211H84.9068V1.79789H80.711V6.04211H78.1635V9.57895H80.711V15.3558C80.711 18.8042 82.689 20.9263 86.0158 20.9263Z" fill="white"/>
<path d="M96.2912 20.9263C98.3592 20.9263 99.8877 20.1305 100.997 18.8042V20.6316H105.192V6.04211H100.997V13.44C100.997 15.8863 99.4681 17.36 97.6099 17.36C95.6618 17.36 94.3731 16.0926 94.3731 13.4695V6.04211H90.1772V14C90.1772 18.7453 92.8746 20.9263 96.2912 20.9263Z" fill="white"/>
<path d="M109.992 6.66105L112 0H108.044L106.725 6.66105H109.992Z" fill="white"/>
</svg>
